<?xml version="1.0" standalone="no"?><!DOCTYPE svg PUBLIC "-//W3C//DTD SVG 1.1//EN" "http://www.w3.org/Graphics/SVG/1.1/DTD/svg11.dtd"><svg t="1716311218822" class="icon" viewBox="0 0 1024 1024" version="1.1" xmlns="http://www.w3.org/2000/svg" p-id="6560" xmlns:xlink="http://www.w3.org/1999/xlink" width="200" height="200"><path d="M512 16.335616c-11.199737 0-22.167479 0.935978-32.847228 2.719936l155.836336 136.548789 63.262512-7.479824C671.500249 71.414321 598.221972 16.343616 512 16.343616zM747.434464 147.060542c-11.319734 0-22.271476 1.463966-32.74323 4.143902l-32.959225 257.29795h65.702455c72.574293 0 131.40491-58.526624 131.40491-130.716926 0-72.198302-58.830617-130.724926-131.40491-130.724926z" fill="#C7E7EB" p-id="6561"></path><path d="M813.136919 277.785468c0-60.878568-41.831016-112.029366-98.445685-126.573024-4.775888 1.215971-9.455778 2.671937-13.999671 4.391897a190.043531 190.043531 0 0 0-2.439943-7.479824 131.676904 131.676904 0 0 0-63.262512 7.479824c-21.407497-70.454343-81.582082-124.15708-155.836336-136.556789-74.262254 12.399708-134.436839 66.102446-155.844335 136.556789a131.676904 131.676904 0 0 0-46.742901-8.543799c-72.574293 0-131.40491 58.526624-131.40491 130.716926 0 72.198302 58.830617 130.716926 131.40491 130.716926h405.166473c72.574293 0 131.40491-58.518624 131.40491-130.716926z" fill="#FFFFFF" p-id="6562"></path><path d="M512 239.650364l-21.903485 32.679232L512 305.016827c57.454649 0 104.029554 46.326911 104.029554 103.485567v234.210492h65.702455V408.502394c0-93.253807-75.998213-168.852029-169.732009-168.85203z" fill="#B7D9DD" p-id="6563"></path><path d="M342.267991 408.502394V642.704886h65.702455V408.502394c0-57.158656 46.574905-103.493566 104.029554-103.493566v-65.358464c-93.741796 0-169.732009 75.598222-169.732009 168.85203z" fill="#C7E7EB" p-id="6564"></path><path d="M681.732009 577.346423l-65.702455 215.146941 65.702455 215.146941h65.702455V577.346423z" fill="#88ACB5" p-id="6565"></path><path d="M276.565536 577.346423h405.166473v430.285882H276.565536z" fill="#A7CBCF" p-id="6566"></path><path d="M479.152772 759.814132a32.847228 32.679232 0 1 0 65.694456 0 32.847228 32.679232 0 1 0-65.694456 0Z" fill="#2F5E88" p-id="6567"></path><path d="M407.970446 925.938226a16.423614 16.335616 0 1 0 32.847228 0 16.423614 16.335616 0 1 0-32.847228 0Z" fill="#000000" p-id="6568"></path><path d="M342.267991 860.579763a16.423614 16.335616 0 1 0 32.847228 0 16.423614 16.335616 0 1 0-32.847228 0Z" fill="#000000" p-id="6569"></path><path d="M512 710.791285c-27.175361 0-49.278841 21.991483-49.278841 49.022847 0 21.295499 13.735677 39.463072 32.855227 46.206914v51.830781c0 9.023788 7.351827 16.343616 16.423614 16.343616a16.383615 16.383615 0 0 0 16.423614-16.343616v-51.830781c19.11955-6.743841 32.847228-24.911414 32.847227-46.206914 0-27.031364-22.09548-49.022847-49.270841-49.022847z m0 65.358463a16.399614 16.399614 0 0 1-16.423614-16.335616A16.399614 16.399614 0 0 1 512 743.470517a16.399614 16.399614 0 0 1 16.423614 16.343615A16.399614 16.399614 0 0 1 512 776.141749z" fill="#000000" p-id="6570"></path><path d="M747.434464 424.83801c81.518083 0 147.828524-65.966449 147.828523-147.060542 0-81.086093-66.31844-147.060542-147.836523-147.060542a147.99652 147.99652 0 0 0-36.455143 4.535893 214.714951 214.714951 0 0 0-70.542341-92.549823C603.173856 14.767653 558.7669 0 512 0c-46.7669 0-91.173856 14.767653-128.42898 42.702996a214.674952 214.674952 0 0 0-70.542341 92.557823 147.900522 147.900522 0 0 0-36.463143-4.543893C195.047453 130.716926 128.737013 196.691375 128.737013 277.785468c0 81.086093 66.31844 147.060542 147.836523 147.060541a16.383615 16.383615 0 0 0 16.415614-16.343615c0-9.023788-7.351827-16.335616-16.423614-16.335616-63.398509 0-114.973296-51.318793-114.973296-114.38131 0-63.070517 51.574787-114.38131 114.973296-114.381311 14.04767 0 27.807346 2.511941 40.895039 7.471825a16.527611 16.527611 0 0 0 13.095692-0.599986c4.087904-1.999953 7.159832-5.599868 8.4798-9.935767C361.86753 85.165997 432.993858 32.679232 512 32.679232s150.13247 52.494766 172.971932 127.652998c1.311969 4.335898 4.383897 7.935813 8.479801 9.935766 4.087904 1.999953 8.831792 2.223948 13.087692 0.607986a114.989296 114.989296 0 0 1 40.895039-7.471825c63.398509 0 114.981296 51.310793 114.981296 114.373311 0 63.070517-51.582787 114.38131-114.981296 114.38131h-50.046824C689.043837 297.681 609.117716 223.306749 512 223.306749c-102.637586 0-186.155622 83.078046-186.155622 185.195645v152.500414h-49.278842a16.383615 16.383615 0 0 0-16.423613 16.343615v430.285882c0 9.031788 7.359827 16.343616 16.423613 16.343616h470.868928a16.383615 16.383615 0 0 0 16.423613-16.343616V577.346423c0-9.023788-7.359827-16.335616-16.423613-16.335616h-49.278842V424.83801h49.278842z m-16.423614 566.458679H292.98915V593.690039h438.0217v397.60665zM424.39406 424.83801h125.933039a16.383615 16.383615 0 0 0 16.423614-16.335616c0-9.023788-7.359827-16.335616-16.423614-16.335616H425.962023C433.681842 351.895725 469.313004 321.352443 512 321.352443c48.302864 0 87.59794 39.095081 87.59794 87.149951v152.508413h-175.19588V424.83801z m208.059107 136.172797V408.502394c0-66.078446-54.038729-119.829182-120.453167-119.829182s-120.453167 53.758736-120.453167 119.829182v152.508413h-32.855228V408.502394C358.691605 324.408371 427.465988 255.99398 512 255.99398c84.534012 0 153.308395 68.414391 153.308395 152.508414v152.500414h-32.855228z" fill="#000000" p-id="6571"></path></svg>