<?xml version="1.0" standalone="no"?><!DOCTYPE svg PUBLIC "-//W3C//DTD SVG 1.1//EN" "http://www.w3.org/Graphics/SVG/1.1/DTD/svg11.dtd"><svg t="1716311321045" class="icon" viewBox="0 0 1024 1024" version="1.1" xmlns="http://www.w3.org/2000/svg" p-id="8753" width="200" height="200" xmlns:xlink="http://www.w3.org/1999/xlink"><path d="M992 446.9696v-19.2a76.8 76.8 0 0 0-76.8-76.8H632.3072c13.1328-54.5472 39.8976-209.5488-67.3536-249.8688-3.2064-1.2096-15.7824-4.416-24.2304-4.0128-22.08 1.056-62.1888 12.4416-63.5136 81.1392 0 0-0.384 153.7152-118.4256 212.6208v-1.4592a38.4 38.4 0 0 0-38.4-38.4h-153.6a38.4 38.4 0 0 0-38.4 38.4v499.2a38.4 38.4 0 0 0 38.4 38.4h153.6a38.4 38.4 0 0 0 38.4-38.4v-22.5792c0.096 0.096 60.3456 50.3616 249.1968 60.9792h211.2a76.8 76.8 0 0 0 76.8-76.8v-19.2a76.416 76.416 0 0 0-12.5952-42.0096 76.6464 76.6464 0 0 0 49.5552-71.5968v-19.2a76.224 76.224 0 0 0-13.92-43.9104c31.0656-9.8496 53.76-38.5728 53.76-72.9024v-19.2a76.032 76.032 0 0 0-18.4704-49.4208C976.7744 499.328 992 475.04 992 446.9696z" fill="#78C9CD" p-id="8754"></path><path d="M896.0192 408.5696v-19.2a76.8 76.8 0 0 0-76.8-76.8H512v38.4h307.2192a38.4 38.4 0 0 1 38.4 38.4v19.2a38.4 38.4 0 0 1-38.4 38.4H719.9936v38.4H800a38.4 38.4 0 0 1 38.4 38.4v19.2a38.4 38.4 0 0 1-38.4 38.3808h-108.8064v40.0128h68.9664a38.4 38.4 0 0 1 38.4 38.4v19.2a38.4 38.4 0 0 1-38.4 38.4h-21.2352a77.1456 77.1456 0 0 0-15.7056-1.632h-59.1936v40.032h69.6192c16.1088 4.5504 27.9744 19.2 27.9744 36.7872v19.2a38.4 38.4 0 0 1-38.4 38.4H512v38.4h211.2a76.8 76.8 0 0 0 76.8-76.8v-19.2a76.416 76.416 0 0 0-12.5952-42.0096 76.6464 76.6464 0 0 0 49.5552-71.5968v-19.2a76.224 76.224 0 0 0-13.92-43.9104c31.0656-9.8496 53.76-38.5728 53.76-72.8832v-19.2c0-18.9312-7.104-36.0384-18.4704-49.44a76.4544 76.4544 0 0 0 37.6896-65.7408zM147.6032 735.2768a43.2 43.2 0 1 0 0 86.4 43.2 43.2 0 0 0 0-86.4z m0 52.8a9.6 9.6 0 1 1 0.0384-19.2384 9.6 9.6 0 0 1-0.0384 19.2384z" fill="#FFFFFF" p-id="8755"></path><path d="M512 850.1504s-139.7952-4.0128-249.1968-60.9792v38.4S323.0144 877.9328 512 888.5504l27.6096-4.608L512 850.1504z" fill="#FFFFFF" p-id="8756"></path><path d="M512 331.7504m-19.2 0a19.2 19.2 0 1 0 38.4 0 19.2 19.2 0 1 0-38.4 0Z" fill="#FFFFFF" p-id="8757"></path><path d="M470.8544 110.2592c20.736 17.3376 58.0416 70.9632 21.9456 221.4912h38.4s68.5824-219.8976-62.2272-269.0688c-3.2064-1.2096-15.7824-4.416-24.2304-4.0128-22.08 1.056-62.1888 12.4416-63.5136 81.1392 0 0-0.2304 156.4032-121.2288 214.176v38.4s118.8672-4.3008 159.8592-220.512c1.5552-8.1408 3.9936-39.0336 4.512-45.7536 0.9216-11.904 5.184-28.1856 21.6576-27.0144 3.6864 0.2688 17.9904 5.4336 24.8256 11.1552z" fill="#FFFFFF" p-id="8758"></path><path d="M721.28 466.0544m-19.6992 0a19.6992 19.6992 0 1 0 39.3984 0 19.6992 19.6992 0 1 0-39.3984 0Z" fill="#FFFFFF" p-id="8759"></path><path d="M692.4032 601.3568m-19.8912 0a19.8912 19.8912 0 1 0 39.7824 0 19.8912 19.8912 0 1 0-39.7824 0Z" fill="#FFFFFF" p-id="8760"></path><path d="M663.7952 735.2768m-20.0064 0a20.0064 20.0064 0 1 0 40.0128 0 20.0064 20.0064 0 1 0-40.0128 0Z" fill="#FFFFFF" p-id="8761"></path><path d="M176 676.6784a9.6 9.6 0 0 1-19.2 0v-96a9.6 9.6 0 0 1 19.2 0v96zM176 524.672a9.6 9.6 0 1 1-19.2 0v-38.4a9.6 9.6 0 0 1 19.2 0v38.4zM176 438.4064a9.6 9.6 0 0 1-19.2 0v-19.2a9.6 9.6 0 0 1 19.2 0v19.2z" fill="#FFFFFF" p-id="8762"></path><path d="M224.4032 312.5696h-153.6a38.4 38.4 0 0 0-38.4 38.4v98.6112h38.4v-79.392a19.2 19.2 0 0 1 19.2-19.2h115.2a19.2 19.2 0 0 1 19.2 19.2v460.7808a19.2 19.2 0 0 1-19.2 19.2h-115.2a19.2 19.2 0 0 1-19.2-19.2V526.3808h-38.4v323.7888a38.4 38.4 0 0 0 38.4 38.4h153.6a38.4 38.4 0 0 0 38.4-38.4v-499.2a38.4 38.4 0 0 0-38.4-38.4z" fill="#FFFFFF" p-id="8763"></path><path d="M51.6032 446.3552m-19.2 0a19.2 19.2 0 1 0 38.4 0 19.2 19.2 0 1 0-38.4 0Z" fill="#FFFFFF" p-id="8764"></path><path d="M51.6032 524.672m-19.2 0a19.2 19.2 0 1 0 38.4 0 19.2 19.2 0 1 0-38.4 0Z" fill="#FFFFFF" p-id="8765"></path></svg>