<?xml version="1.0" standalone="no"?><!DOCTYPE svg PUBLIC "-//W3C//DTD SVG 1.1//EN" "http://www.w3.org/Graphics/SVG/1.1/DTD/svg11.dtd"><svg t="1716310617502" class="icon" viewBox="0 0 1024 1024" version="1.1" xmlns="http://www.w3.org/2000/svg" p-id="2843" xmlns:xlink="http://www.w3.org/1999/xlink" width="200" height="200"><path d="M34.157714 283.940571h955.757715c18.797714 0 34.084571 15.286857 34.084571 34.157715v159.744a34.157714 34.157714 0 0 1-34.157714 34.157714H34.157714A34.157714 34.157714 0 0 1 0 477.842286V318.098286c0-18.870857 15.286857-34.157714 34.157714-34.157715z" fill="#35BA2E" p-id="2844"></path><path d="M885.321143 171.593143L532.553143 3.730286a38.546286 38.546286 0 0 0-32.841143 0l-359.570286 165.302857a39.350857 39.350857 0 0 0-22.966857 35.547428v344.941715c0 2.413714 0.585143 4.973714 1.243429 7.168a492.763429 492.763429 0 0 0 388.388571 364.105143c5.851429 1.024 11.922286 1.024 17.773714 0 13.824-3.218286 337.042286-79.725714 382.464-368.64V206.555429a39.789714 39.789714 0 0 0-21.723428-34.962286z" fill="#307CFB" p-id="2845"></path><path d="M682.642286 443.757714h-153.6v-153.6a17.042286 17.042286 0 1 0-34.084572 0v153.6h-153.6a17.042286 17.042286 0 1 0 0 34.084572h153.6v153.6a17.042286 17.042286 0 1 0 34.084572 0v-153.6h153.6a17.042286 17.042286 0 1 0 0-34.084572z" fill="#FFFFFF" p-id="2846"></path><path d="M1012.224 862.646857c0-42.057143-81.042286-90.185143-195.145143-115.858286-5.485714 5.924571-11.044571 11.702857-16.749714 17.261715 21.065143 4.461714 40.886857 9.362286 59.611428 14.848 46.518857 13.604571 81.481143 29.037714 104.96 46.372571 17.846857 13.165714 26.770286 25.6 26.770286 37.302857 0 11.702857-8.923429 24.137143-26.770286 37.302857-23.478857 17.334857-58.441143 32.768-104.96 46.372572-47.762286 13.970286-103.131429 24.576-166.180571 31.890286l-16.164571 1.609142a34.084571 34.084571 0 0 0-32.475429-24.137142 34.011429 34.011429 0 0 0-33.645714 29.622857 1586.541714 1586.541714 0 0 1-281.234286-6.948572c-63.049143-7.314286-118.491429-17.92-166.180571-31.890285-46.518857-13.604571-81.481143-29.037714-104.96-46.372572-17.846857-13.165714-26.770286-25.6-26.770286-37.302857 0-11.702857 8.923429-24.137143 26.770286-37.302857 23.478857-17.334857 58.441143-32.768 104.96-46.372572 20.187429-5.924571 41.691429-11.190857 64.585142-15.872a446.464 446.464 0 0 1-15.945142-17.481142c-117.248 25.6-200.850286 74.313143-200.850286 117.101714 0 80.749714 223.963429 146.139429 500.224 146.139428a1682.285714 1682.285714 0 0 0 103.131428-3.145142 33.865143 33.865143 0 0 0 62.244572-5.193143c194.925714-19.968 334.774857-74.166857 334.774857-137.947429z" fill="#FFFFFF" p-id="2847"></path><path d="M862.646857 737.572571a114.176 114.176 0 0 0-23.990857-18.066285 403.602286 403.602286 0 0 1-12.434286 16.457143c5.193143 2.852571 9.874286 5.851429 14.043429 8.850285l0.512 0.438857a33.572571 33.572571 0 0 0-5.193143 47.542858c-16.530286 10.971429-39.789714 20.918857-70.436571 29.842285-69.632 20.041143-154.038857 30.134857-253.147429 30.134857s-183.515429-10.093714-253.147429-30.208l-9.654857-3.072c0.073143-0.950857 0.292571-1.828571 0.292572-2.852571a34.157714 34.157714 0 0 0-59.392-22.820571c-2.121143-1.316571-4.461714-2.633143-6.363429-4.022858-11.556571-8.411429-17.334857-15.945143-17.334857-22.454857s5.778286-14.043429 17.334857-22.454857a139.702857 139.702857 0 0 1 19.163429-11.629714 695.734857 695.734857 0 0 1-12.068572-16.749714c-27.574857 14.628571-44.836571 34.157714-44.836571 50.834285 0 16.237714 13.019429 31.597714 35.620571 45.348572-0.146286 1.316571-0.365714 2.633143-0.365714 3.949714a34.157714 34.157714 0 0 0 60.196571 21.869714c66.925714 21.284571 163.254857 34.816 270.628572 34.816 156.598857 0 289.865143-28.525714 342.089143-68.534857a34.157714 34.157714 0 1 0 8.484571-67.218286z" fill="#FFFFFF" p-id="2848"></path></svg>